inDegrees=no
num_controls=7
num_derivatives=13
num_iterations=171
num_multipliers=7
num_parameters=0
num_slacks=7
num_states=26
objective=5.243276
objective_accelerations=0.469374
objective_balance=0.004538
objective_effort=0.394833
objective_height=4.351178
objective_ligament=0.023353
solver_duration=1511.954220
status=Solve_Succeeded
success=true
DataType=double
version=3
OpenSimVersion=4.4-2022-07-23-0e9fedc
endheader
time	/jointset/ground_pelvis/pelvis_tilt/value	/jointset/ground_pelvis/pelvis_tx/value	/jointset/ground_pelvis/pelvis_ty/value	/jointset/hip_r/hip_flexion_r/value	/jointset/hip_r/hip_adduction_r/value	/jointset/hip_r/hip_rotation_r/value	/jointset/back/lumbar_extension/value	/jointset/patellofemoral_r/patellar_flexion_r/value	/jointset/knee_r/knee_flexion_r/value	/jointset/knee_r/knee_adduction_r/value	/jointset/knee_r/knee_rotation_r/value	/jointset/ankle_r/ankle_angle_r/value	/jointset/subtalar_r/subtalar_angle_r/value	/jointset/ground_pelvis/pelvis_tilt/speed	/jointset/ground_pelvis/pelvis_tx/speed	/jointset/ground_pelvis/pelvis_ty/speed	/jointset/hip_r/hip_flexion_r/speed	/jointset/hip_r/hip_adduction_r/speed	/jointset/hip_r/hip_rotation_r/speed	/jointset/back/lumbar_extension/speed	/jointset/patellofemoral_r/patellar_flexion_r/speed	/jointset/knee_r/knee_flexion_r/speed	/jointset/knee_r/knee_adduction_r/speed	/jointset/knee_r/knee_rotation_r/speed	/jointset/ankle_r/ankle_angle_r/speed	/jointset/subtalar_r/subtalar_angle_r/speed	/forceset/tau_hip_flexion_r	/forceset/tau_hip_adduction_r	/forceset/tau_hip_rotation_r	/forceset/tau_knee_flexion_r	/forceset/tau_ankle_angle_r	/forceset/tau_subtalar_angle_r	/forceset/tau_lumbar_extension	lambda_cid13_p0	lambda_cid14_p0	lambda_cid14_p1	lambda_cid14_p2	lambda_cid14_p3	lambda_cid14_p4	lambda_cid14_p5	/jointset/ground_pelvis/pelvis_tilt/accel	/jointset/ground_pelvis/pelvis_tx/accel	/jointset/ground_pelvis/pelvis_ty/accel	/jointset/hip_r/hip_flexion_r/accel	/jointset/hip_r/hip_adduction_r/accel	/jointset/hip_r/hip_rotation_r/accel	/jointset/back/lumbar_extension/accel	/jointset/patellofemoral_r/patellar_flexion_r/accel	/jointset/knee_r/knee_flexion_r/accel	/jointset/knee_r/knee_adduction_r/accel	/jointset/knee_r/knee_rotation_r/accel	/jointset/ankle_r/ankle_angle_r/accel	/jointset/subtalar_r/subtalar_angle_r/accel	gamma_cid13_p0	gamma_cid14_p0	gamma_cid14_p1	gamma_cid14_p2	gamma_cid14_p3	gamma_cid14_p4	gamma_cid14_p5
0.5	-0.09029497145844322	0.03866440058622874	0.8299397239108506	0.7755394937607395	-0.215335450016795	-0.1514155694253925	-0.6356422796012487	0.8778936291346866	0.8778936291346675	-0.06064107791954709	0.1745317126454801	0.2861427171649937	0.1472990548078241	-0.2468404758641137	-0.1790802710250841	-0.4089832596517804	1.55271732903405	-0.02267132643207457	0.1469808256863943	-0.7407307142863239	1.731723973097885	1.731723973097864	-0.4206993367360897	3.412737526133894e-05	0.5266181731138249	0.1789709084502917	-0.1665391197833343	0.002269344154533017	0.01695982655454561	-0.2880643502881536	0.003743030278063531	0.001620562916369819	0.2211230467159131	-12.66657128605935	-41.45040453956919	-4.931804026387828	-0.6445744600058321	-3.554669518419855	-644.6996718149343	66.81436940022415	0.19962814459449	0.4956939059146553	-0.3425149444043164	-1.114130459897224	-0.1992561333768715	-0.5845770147775023	1.606192196225891	-1.199489545249096	-1.19948954524911	0.3657003176375135	-0.005646160469515833	-0.4191272416669822	-0.2887588426893073	-8.767099571593681e-08	-1.243102126626955e-07	6.627570650632462e-08	-1.426781968322959e-06	5.475196152461222e-08	-1.718881707375169e-07	2.592128029683906e-07
0.51	-0.09275283315006135	0.03689848672116024	0.8258336497893777	0.7910087081007899	-0.2155728714405454	-0.1499729586010415	-0.642968480964457	0.8951487962212508	0.8951487962213341	-0.06482641791541073	0.1745317442670221	0.2913868608716564	0.1490725926217036	-0.2446813346155427	-0.1740934126664865	-0.4121427543628584	1.540918335103538	-0.02480803174912143	0.1415709608424121	-0.7244223191103502	1.719084648974319	1.719084648974311	-0.4163084652366869	-2.820509028647875e-05	0.5221290473344171	0.1756965261781591	-0.1722268114183256	0.003623214362974548	0.01724822407487923	-0.2916702161304708	0.00161731750921808	0.002044115893506795	0.2265040573081144	-11.77484004518108	-42.38024553239389	-5.057369642093742	-0.4569817774704524	-3.15666926786913	-648.6202926202656	66.86551773013294	0.2316200837970877	0.5015575196477016	-0.2893815748580894	-1.243884662340319	-0.2203711747765147	-0.5149565267071247	1.656249065070091	-1.329853722207117	-1.329853722205283	0.4847956403858962	-0.00688632344915131	-0.4760404577623898	-0.3529735254516599	-8.477011264265462e-08	-9.645995708469274e-08	2.47526981688705e-07	-1.182187040539177e-06	1.975428810550914e-08	-1.485387237215116e-07	3.435159860344194e-07
0.52	-0.09518759083543317	0.03518271658344061	0.821698637752714	0.8063537123409926	-0.2158315586062514	-0.1485835994866153	-0.6501289811985488	0.9122708300914019	0.9122708300914059	-0.0689660461814352	0.1745310806622149	0.2965836662781859	0.1508121474916662	-0.242219674614626	-0.1690515255553135	-0.414770842689915	1.527875309064527	-0.02692447482252279	0.1363304836984844	-0.7075904884628916	1.70509732979888	1.705097329798884	-0.4115569907655263	-0.0001049189098590778	0.5171505130876207	0.1721743196669546	-0.1779145030533154	0.004977084571485446	0.01753662159428155	-0.2952760819729026	-0.0005083952596107105	0.002467668870771792	0.2318850679003148	-10.8855839902659	-43.31181618436248	-5.179358551472204	-0.2743912324650977	-2.781105415322348	-652.5680401494651	66.98476008049705	0.2601318950636327	0.5066996564298013	-0.2362336676000666	-1.362936881597114	-0.1952036846482172	-0.5506994747673231	1.710879290522866	-1.469088555623721	-1.469088555623724	0.437820911989182	-0.008522431273382713	-0.5170089351446803	-0.3383236905042016	-5.995105867508158e-08	-1.287590581124908e-08	6.116293934300549e-07	-3.915707114700456e-07	-6.479471024499161e-08	-8.111161954091595e-08	4.856979209471944e-07
0.53	-0.09759650308241616	0.03351771219483119	0.8175400369250433	0.8215622836717055	-0.2161107861049286	-0.1472481248430723	-0.6571185257641322	0.9292460011688171	0.9292460011688118	-0.07305901982022776	0.1745304082761092	0.3017285466174835	0.1525161834661411	-0.2395283192201441	-0.1639316097028923	-0.4168550470374371	1.513630286530809	-0.02891814319595052	0.1308206080069085	-0.6902424421110723	1.689715820729444	1.689715820729446	-0.4069537173098572	-4.673572861848117e-05	0.5117619394854152	0.1685952408111918	-0.1828839968702471	0.005267096263862634	0.0179837503795393	-0.3002236098263367	-0.0009096353556244089	0.00307801810937303	0.2368005491828979	-10.00095126547102	-43.67364828440685	-5.121061909138734	-0.1198612341864312	-2.912088734279707	-656.6324403608296	67.66712345833075	0.2788083256515662	0.517277078548017	-0.180381586458147	-1.486582068202578	-0.2009662562929816	-0.5427663408618353	1.758164688944518	-1.605832442134162	-1.605832442134464	0.4842906141724517	0.01043993244739804	-0.5593484778625942	-0.373216630138313	-4.879500827566325e-08	4.105645246631222e-08	9.125331801105479e-07	9.771739425479557e-08	-1.248754065739358e-07	-4.447101345541649e-08	6.343062825840898e-07
